<svg width="512" height="512" xmlns="http://www.w3.org/2000/svg" viewBox="0 0 512 512">
  <defs>
    <linearGradient id="bg" x1="0%" y1="0%" x2="100%" y2="100%">
      <stop offset="0%" stop-color="#C22C2D"/>
      <stop offset="100%" stop-color="#8B1E1F"/>
    </linearGradient>
    <linearGradient id="gold" x1="0%" y1="0%" x2="1" y2="1">
      <stop offset="0%" stop-color="#E6B65C"/>
      <stop offset="100%" stop-color="#F7ECD8"/>
    </linearGradient>
  </defs>
  <!-- Background -->
  <rect width="512" height="512" fill="url(#bg)" rx="64"/>
  <!-- Outer gold ring -->
  <circle cx="256" cy="256" r="190" fill="none" stroke="url(#gold)" stroke-width="12"/>
  <!-- Inner wheel circle -->
  <circle cx="256" cy="256" r="160" fill="#161F2F" stroke="url(#gold)" stroke-width="6"/>
  <!-- 12 spokes -->
  <g stroke="url(#gold)" stroke-width="5" stroke-linecap="round">
    <line x1="256" y1="256" x2="256" y2="106"/>
    <line x1="256" y1="256" x2="330" y2="146"/>
    <line x1="256" y1="256" x2="366" y2="256"/>
    <line x1="256" y1="256" x2="330" y2="366"/>
    <line x1="256" y1="256" x2="256" y2="406"/>
    <line x1="256" y1="256" x2="182" y2="366"/>
    <line x1="256" y1="256" x2="146" y2="256"/>
    <line x1="256" y1="256" x2="182" y2="146"/>
  </g>
  <!-- Center hub -->
  <circle cx="256" cy="256" r="40" fill="url(#gold)"/>
  <!-- Pointer at top -->
  <path d="M256 86 L268 130 L244 130 Z" fill="#E6B65C"/>
</svg>
